<svg xmlns="http://www.w3.org/2000/svg" width="27.66" height="21.513" viewBox="0 0 27.66 21.513">
  <path id="tachometer-alt" d="M13.83,32A13.829,13.829,0,0,1,25.784,52.784a1.52,1.52,0,0,1-1.318.73H3.193a1.52,1.52,0,0,1-1.318-.73A13.829,13.829,0,0,1,13.83,32Zm0,3.073a1.516,1.516,0,0,0-1.456,1.136,2.588,2.588,0,0,1,.166.32l.443,1.329a1.5,1.5,0,0,0,.847.289,1.537,1.537,0,0,0,0-3.073ZM23.05,48.9a1.537,1.537,0,1,0-1.537-1.537A1.537,1.537,0,0,0,23.05,48.9ZM20.745,41.22a1.537,1.537,0,1,0-1.537-1.537A1.537,1.537,0,0,0,20.745,41.22ZM8.895,37.743l2.945,8.836a3.016,3.016,0,0,0-.657,3.861h5.294a3.042,3.042,0,0,0-2.45-4.59l-2.946-8.836a1.152,1.152,0,0,0-2.186.729Zm-.7,2.747-.745-2.235a1.515,1.515,0,0,0-.531-.107,1.537,1.537,0,0,0,0,3.073,1.513,1.513,0,0,0,1.276-.731ZM4.61,48.9a1.537,1.537,0,1,0-1.537-1.537A1.537,1.537,0,0,0,4.61,48.9Z" transform="translate(0 -32)" fill="#00af3a"/>
</svg>
