<svg width="16" height="23" viewBox="0 0 16 23" fill="none" xmlns="http://www.w3.org/2000/svg">
    <path d="M8.42879 0.25177L15.3898 7.21277C15.551 7.37404 15.6416 7.59274 15.6416 7.82077C15.6416 8.0488 15.551 8.2675 15.3898 8.42877L14.5778 9.24077C14.4166 9.40137 14.1983 9.49155 13.9708 9.49155C13.7433 9.49155 13.525 9.40137 13.3638 9.24077L7.82079 3.72377L2.27779 9.24077C2.1166 9.40137 1.89834 9.49155 1.67079 9.49155C1.44325 9.49155 1.22499 9.40137 1.0638 9.24077L0.251795 8.42877C0.0905819 8.2675 1.71661e-05 8.0488 1.71661e-05 7.82077C1.71661e-05 7.59274 0.0905819 7.37404 0.251795 7.21277L7.2128 0.25177C7.37407 0.0905571 7.59276 0 7.82079 0C8.04883 0 8.26752 0.0905571 8.42879 0.25177Z" fill="current"/>
    <path d="M7.21278 22.2388L0.251776 15.2778C0.0905633 15.1165 0 14.8978 0 14.6698C0 14.4417 0.0905633 14.223 0.251776 14.0618L1.06378 13.2498C1.22497 13.0892 1.44323 12.999 1.67078 12.999C1.89832 12.999 2.11659 13.0892 2.27778 13.2498L7.82078 18.7668L13.3638 13.2498C13.525 13.0892 13.7432 12.999 13.9708 12.999C14.1983 12.999 14.4166 13.0892 14.5778 13.2498L15.3898 14.0618C15.551 14.223 15.6416 14.4417 15.6416 14.6698C15.6416 14.8978 15.551 15.1165 15.3898 15.2778L8.42878 22.2388C8.2675 22.4 8.04881 22.4905 7.82078 22.4905C7.59275 22.4905 7.37405 22.4 7.21278 22.2388Z" fill="current"/>
</svg>
