<svg width="15.642" height="9.493" viewBox="0 0 16 10" fill="none" xmlns="http://www.w3.org/2000/svg">
<g clip-path="url(#clip0_70_23)">
<path d="M8.42901 0.252998L15.39 7.214C15.5512 7.37527 15.6418 7.59397 15.6418 7.822C15.6418 8.05003 15.5512 8.26873 15.39 8.43L14.578 9.242C14.4168 9.4026 14.1986 9.49277 13.971 9.49277C13.7435 9.49277 13.5252 9.4026 13.364 9.242L7.82101 3.725L2.27801 9.242C2.11682 9.4026 1.89855 9.49277 1.67101 9.49277C1.44347 9.49277 1.2252 9.4026 1.06401 9.242L0.252008 8.43C0.0907955 8.26873 0.000230789 8.05003 0.000230789 7.822C0.000230789 7.59397 0.0907955 7.37527 0.252008 7.214L7.21301 0.252998C7.37428 0.0917855 7.59298 0.00122833 7.82101 0.00122833C8.04904 0.00122833 8.26774 0.0917855 8.42901 0.252998Z" fill="current"/>
</g>
<defs>
<clipPath id="clip0_70_23">
<rect width="15.642" height="9.493" fill="white" transform="matrix(-1 0 0 -1 15.642 9.493)"/>
</clipPath>
</defs>
</svg>
