<svg xmlns="http://www.w3.org/2000/svg" width="15" height="15" viewBox="0 0 15 15">
  <path id="Path_2285" data-name="Path 2285" d="M236.246,454.924a.51.51,0,0,1-.288-.2c-.593-.588-1.176-1.187-1.779-1.763-.211-.2-.205-.321,0-.524,1.59-1.57,3.163-3.158,4.758-4.724.257-.253.245-.385,0-.63-1.577-1.549-3.13-3.123-4.708-4.67-.261-.256-.246-.394.009-.632.574-.536,1.134-1.09,1.668-1.666.254-.274.393-.229.633.014,1.554,1.572,3.128,3.124,4.684,4.695.229.231.358.259.6.01,1.562-1.582,3.145-3.142,4.709-4.721.232-.235.369-.258.606-.006.555.59,1.132,1.161,1.72,1.719.223.212.218.336,0,.551-1.591,1.57-3.164,3.158-4.758,4.725-.244.24-.232.369,0,.6,1.584,1.56,3.147,3.14,4.732,4.7.248.244.23.379-.008.6-.571.539-1.136,1.088-1.666,1.667-.268.292-.412.235-.66-.016-1.554-1.572-3.128-3.124-4.684-4.694-.221-.223-.341-.248-.577-.009-1.571,1.59-3.158,3.163-4.741,4.741C236.414,454.777,236.322,454.855,236.246,454.924Z" transform="translate(-234.023 -439.924)" fill="#AA0000"/>
</svg>
