<svg xmlns="http://www.w3.org/2000/svg" width="19.457" height="19.457" viewBox="0 0 19.457 19.457">
  <path id="pizza-slice" d="M13.435,19.448a1.253,1.253,0,0,0,1.343-.917l.563-2.138C8.211,16.184,3.387,11.429,3.086,4.346l-2.164.6a1.254,1.254,0,0,0-.9,1.364A15.1,15.1,0,0,0,13.435,19.448Zm2.222-4.256L19.452.77a.616.616,0,0,0-.76-.751L4.289,4.013c.162,6.646,4.677,11.1,11.369,11.177ZM14.608,3.644a1.216,1.216,0,1,1-1.216,1.216A1.216,1.216,0,0,1,14.608,3.644ZM12.784,9.421a1.216,1.216,0,1,1-1.216,1.216A1.216,1.216,0,0,1,12.784,9.421ZM8.832,5.469A1.216,1.216,0,1,1,7.616,6.685,1.216,1.216,0,0,1,8.832,5.469Z" transform="translate(-0.015 0.003)" fill="#00af3a"/>
</svg>
